<svg width="336" height="65" viewBox="0 0 336 65" fill="none" xmlns="http://www.w3.org/2000/svg">
<g clip-path="url(#clip0_697_13865)">
<path fill-rule="evenodd" clip-rule="evenodd" d="M87.6545 16.25H92.6548L108.443 41.429V16.25H112.465V47.3324H107.72L91.6973 22.1745V47.3324H87.6545V16.25ZM128.244 16.25H151.033V20.0586H132.372V29.4954H149.629V33.0924H132.372V43.6296H151.352V47.3324H128.244V16.25ZM188.367 19.9528V16.25H163.004V19.9528H173.537V47.3324H177.835V19.9528H188.367ZM212.956 43.7354C214.389 43.7354 215.566 43.5872 216.488 43.291C218.134 42.7409 219.481 41.683 220.531 40.1172C221.368 38.8618 221.971 37.2537 222.34 35.293C222.552 34.1222 222.659 33.036 222.659 32.0345C222.659 28.1836 221.889 25.1932 220.35 23.0632C218.811 20.9331 216.332 19.8682 212.913 19.8682H205.402V43.7354H212.956ZM201.147 16.25H213.807C218.105 16.25 221.439 17.7664 223.808 20.7992C225.921 23.5357 226.978 27.041 226.978 31.3151C226.978 34.6159 226.354 37.5993 225.106 40.2653C222.907 44.9767 219.127 47.3324 213.765 47.3324H201.147V16.25ZM252.439 20.8626L257.184 34.5947H247.396L252.439 20.8626ZM255.014 16.25H250.226L238.46 47.3324H242.8L246.184 38.0225H258.546L261.717 47.3324H266.355L255.014 16.25ZM298.455 16.25V19.9528H287.922V47.3324H283.624V19.9528H273.092V16.25H298.455ZM319.129 20.8626L323.874 34.5947H314.086L319.129 20.8626ZM321.703 16.25H316.916L305.149 47.3324H309.49L312.873 38.0225H325.236L328.406 47.3324H333.045L321.703 16.25Z" fill="white"/>
</g>
<path fill-rule="evenodd" clip-rule="evenodd" d="M40.7084 59.5833H27.5225L0.5 8.125H38.8578C53.7729 8.15204 65.858 20.0767 65.8659 34.7873C65.8419 48.4964 54.5902 59.5833 40.7084 59.5833Z" fill="#00AB44"/>
<defs>
<clipPath id="clip0_697_13865">
<rect width="247.846" height="32.5" fill="white" transform="translate(87.6545 16.25)"/>
</clipPath>
</defs>
</svg>
