<?xml version="1.0" encoding="utf-8"?>
<!-- Generator: Adobe Illustrator 26.0.3, SVG Export Plug-In . SVG Version: 6.00 Build 0)  -->
<svg version="1.1" id="Layer_1" xmlns="http://www.w3.org/2000/svg" xmlns:xlink="http://www.w3.org/1999/xlink" x="0px" y="0px"
	 viewBox="0 0 453.4 157.6" style="enable-background:new 0 0 453.4 157.6;" xml:space="preserve">
<style type="text/css">
	.st0{fill:#FFFFFF;}
	.st1{fill:#40B3E1;}
</style>
<g id="Layer_2_00000090993085902685730420000004113171644235168664_">
	<g id="Gartner_Logo_-_New_Gartner_Blue_00000161607760287455108490000010015311937253264308_">
		<g>
			<g>
				<path class="st0" d="M212.9,15.7l-0.6,7.4h-3c-4.8,0-7.3,3.9-7.3,7.6v16.7h-8.5V15.7h8.1l0.2,4c1.7-2.7,4.7-4,8.3-4H212.9z"/>
				<path class="st0" d="M153.6,47.4h-8.6V30.7c0-3.5-0.3-7.9-5.2-7.9c-4.7,0-6.6,3.4-6.6,7.4v17.2h-8.6V15.7h7.9l0.2,4
					c1.7-2.7,4.9-4.8,9.5-4.8c8.6,0,11.3,6.2,11.3,12.6V47.4z"/>
				<path class="st0" d="M120.9,40l-0.6,7.2c-2.1,0.6-3.9,0.7-6.1,0.7c-8.1,0-10.4-3.7-10.4-11.1v-30h8.6v8.9h8.5l-0.6,7.4h-7.9
					v13.1c0,3,0.8,4.6,3.9,4.6C117.6,40.8,119.1,40.6,120.9,40"/>
				<path class="st0" d="M101,15.7l-0.7,7.4H98c-4.8,0-7.2,3.9-7.2,7.6v16.7h-8.6V15.7h8.1l0.2,4c1.7-2.7,4.7-4,8.4-4H101z"/>
				<path class="st0" d="M43.7,43.9c-5.8,3.1-11.6,4.9-19.3,4.7C10.2,48.1,0,39.3,0,24.4C0,9.6,10.3,0.1,24.4-0.1
					C31.6-0.2,38,1.6,43,6l-6,6.1C33.8,9.5,29.3,8,23.9,8.2C15,8.6,9.6,15.1,9.5,23.9c-0.1,9.6,5.8,16.2,15,16.5
					c4.3,0.1,7.4-0.5,10.1-1.7v-9.8h-9.6l0.6-8.1h18V43.9z"/>
				<path class="st0" d="M181,28c-0.3-4-3.3-6.5-7.4-6.4c-4.2,0.2-6.9,2.9-7.5,6.4H181z M189.5,34.6h-23.5c0.7,4,3.9,6.5,7.8,6.6
					c3.9,0.1,6-1.1,8.8-3.9l5.6,4.3c-4,4.9-8.7,6.7-14.2,6.7c-9.5,0-16.7-6.7-16.7-16.6c0-9.9,7.1-16.6,16.3-16.6
					c10.2,0,15.7,6.2,15.7,17.1V34.6z"/>
				<path class="st0" d="M68.7,33.6h-1.2c-4,0-11.2,0.2-11.1,4.4c0,6,12.3,4.1,12.3-3.1V33.6z M76.9,26.7v20.7h-7.5l-0.2-3.1
					c-2.3,2.9-6.1,3.9-9.9,3.9c-5.8,0-11.3-2.9-11.4-9.6c-0.2-10.5,11.8-11.3,19.4-11.3h1.5v-0.4c0-3.5-2.3-5.4-6.6-5.4
					c-3.1,0-6.2,1.2-8.4,3.4l-4.9-5c4.5-3.6,9.1-5,14.1-5C72.6,15,76.9,19.5,76.9,26.7"/>
				<path class="st0" d="M208.8,43.4v-1.5h1c0.5,0,1.1,0.1,1.1,0.7c0,0.8-0.6,0.8-1.2,0.8H208.8z M208.8,44.1h0.9l1.3,2.1h0.8
					l-1.4-2.2c0.7-0.1,1.3-0.5,1.3-1.4c0-1-0.6-1.4-1.7-1.4H208v4.9h0.7V44.1z M209.7,48c2.3,0,4.3-1.8,4.3-4.3c0-2.4-2-4.2-4.3-4.2
					c-2.3,0-4.3,1.8-4.3,4.2C205.4,46.2,207.3,48,209.7,48 M206.2,43.7c0-2,1.5-3.5,3.5-3.5c1.9,0,3.5,1.5,3.5,3.5
					c0,2.1-1.5,3.6-3.5,3.6C207.7,47.3,206.2,45.8,206.2,43.7"/>
			</g>
		</g>
	</g>
	<g id="Layer_1-2">
		<path class="st0" d="M39.3,102.3v0.3c0,12-9,16.7-19.8,16.7h-9.2v23H3.5V85.8h16.1C30.4,85.8,39.3,90.6,39.3,102.3z M32.5,102.7
			v-0.3c0-8-4.8-11-12.4-11h-9.7v22.6H20C28.1,113.9,32.5,110,32.5,102.7z"/>
		<path class="st0" d="M41.2,122.2v-0.6c0-12.5,8-21.2,19.4-21.2c9.6,0,18.6,5.8,18.6,20.6v2.1H48.1c0.3,9.4,4.8,14.6,13.3,14.6
			c6.4,0,10.1-2.4,11-7.2H79c-1.4,8.3-8.3,12.7-17.7,12.7C49.6,143.1,41.2,134.9,41.2,122.2z M60.7,105.8c-6.7,0-11.2,4.6-12.3,11.9
			h24.2C71.9,109.2,67.5,105.8,60.7,105.8z"/>
		<path class="st0" d="M85,122.2v-0.6c0-12.5,8-21.2,19.4-21.2c9.6,0,18.6,5.8,18.6,20.6v2.1H91.8c0.3,9.4,4.8,14.6,13.3,14.6
			c6.4,0,10.1-2.4,11-7.2h6.6c-1.4,8.3-8.3,12.7-17.7,12.7C93.3,143.1,85,134.9,85,122.2z M104.4,105.8c-6.7,0-11.2,4.6-12.4,11.9
			h24.2C115.7,109.2,111.2,105.8,104.4,105.8L104.4,105.8z"/>
		<path class="st0" d="M137.9,108.4c2.6-4.7,6.2-7.9,13.6-8.2v6.2c-8.3,0.4-13.6,3-13.6,13.2v22.7h-6.6V101h6.6V108.4z"/>
		<path class="st1" d="M180.3,142.4h-6.9V85.8h6.9V142.4z"/>
		<path class="st1" d="M196.5,107.6c1.9-3.9,6.5-7.3,13.3-7.3c8.6,0,14.6,4.7,14.6,16.7v25.4h-6.6v-25.9c0-7.3-3.1-10.5-9.7-10.5
			c-6.1,0-11.6,3.9-11.6,11.3v25.1h-6.6V101h6.6V107.6z"/>
		<path class="st1" d="M229.7,129.7h6.4c0.5,4.9,3.1,8,9.8,8c6.2,0,9-2.1,9-6.6s-3.2-5.8-9.7-7c-10.8-2-14.4-5-14.4-12.2
			c0-7.7,7.5-11.6,14-11.6c7.4,0,13.9,3,15,12h-6.3c-0.9-4.5-3.5-6.5-8.7-6.5c-4.8,0-7.8,2.4-7.8,5.9c0,3.7,2.1,5.2,9.7,6.6
			c8.6,1.6,14.6,3.5,14.6,12.3c0,7.5-5.1,12.6-15.2,12.6C236.1,143.1,230.1,138.1,229.7,129.7z"/>
		<path class="st1" d="M267.4,88c0-2.4,1.9-4.4,4.4-4.4s4.4,1.9,4.4,4.3c0,2.4-1.9,4.4-4.4,4.4c0,0,0,0,0,0
			C269.4,92.3,267.4,90.4,267.4,88z M275.2,142.4h-6.6V101h6.6V142.4z"/>
		<path class="st1" d="M283.4,144.8h6.7c1,4.8,4.9,7.2,12,7.2c8.1,0,13.3-3.9,13.3-12.8v-6c-3.1,4.8-8.3,7.7-14,7.8
			c-10.9,0-18.9-8.2-18.9-19.6v-0.6c0-11.2,7.9-20.6,19.3-20.6c6.9,0,11.2,3.3,13.5,7.4V101h6.5v38.6c-0.1,12-8.2,17.9-19.8,17.9
			C289.9,157.6,284.5,151.8,283.4,144.8z M315.6,121v-0.6c0-9.3-5.1-14.7-13.1-14.7c-8.2,0-13.1,6.1-13.1,14.8v0.6
			c0,9,5.8,14.4,12.8,14.4C309.8,135.6,315.6,130.2,315.6,121z"/>
		<path class="st1" d="M338.9,107.6c1.9-3.9,6.5-7.3,13.3-7.3c8.5,0,14.6,4.7,14.6,16.7v25.4h-6.6v-25.9c0-7.3-3.1-10.5-9.7-10.5
			c-6.1,0-11.6,3.9-11.6,11.3v25.1h-6.6V81.2h6.6V107.6z"/>
		<path class="st1" d="M377.4,132.1v-25.5h-5.9V101h5.9v-9.4h6.6v9.4h9.7v5.6h-9.7v24.9c0,4,1.8,6,5.1,6c1.7,0,3.5-0.3,5.1-0.9v5.5
			c-1.8,0.6-3.7,0.9-5.6,0.9C381,143,377.4,138.5,377.4,132.1z"/>
		<path class="st1" d="M397.4,129.7h6.4c0.5,4.9,3.1,8,9.7,8c6.3,0,9-2.1,9-6.6s-3.2-5.8-9.7-7c-10.8-2-14.4-5-14.4-12.2
			c0-7.7,7.5-11.6,14-11.6c7.4,0,13.9,3,15,12h-6.3c-1-4.5-3.5-6.5-8.7-6.5c-4.8,0-7.8,2.4-7.8,5.9c0,3.7,2.1,5.2,9.7,6.6
			c8.6,1.6,14.6,3.5,14.6,12.3c0,7.5-5.1,12.6-15.2,12.6C403.7,143.1,397.8,138.1,397.4,129.7z"/>
		<path class="st0" d="M434.4,133.5h7.5v1.5h-2.8v8.5h-1.9V135h-2.8V133.5z"/>
		<path class="st0" d="M448.3,140.4l2.6-6.8h2.5v10h-1.9V136l-3,7.6h-0.6l-3-7.6v7.6h-1.7v-10h2.5L448.3,140.4z"/>
	</g>
</g>
</svg>
