<svg width="265" height="200" viewBox="0 0 265 200" fill="none" xmlns="http://www.w3.org/2000/svg">
<path d="M97.4291 78.7107L-27 -16V217L97.4291 124.613V78.7107Z" stroke="#00220E"/>
<line x1="64.37" y1="53.3175" x2="64.37" y2="148.848" stroke="#00220E"/>
<line x1="29.42" y1="26.5225" x2="29.42" y2="175.642" stroke="#00220E"/>
<line y1="-0.5" x2="132.677" y2="-0.5" transform="matrix(-0.939537 -0.342448 0.305725 -0.95212 97.655 80.1125)" stroke="#00220E"/>
<line y1="-0.5" x2="136.186" y2="-0.5" transform="matrix(-0.913234 0.407435 -0.365798 -0.930694 97.5122 121.687)" stroke="#00220E"/>
<line x1="96.49" y1="101.582" x2="-27" y2="101.582" stroke="#00220E"/>
<path d="M167.781 78.7107L292.21 -16V217L167.781 124.613V78.7107Z" stroke="#00220E"/>
<line y1="-0.5" x2="95.53" y2="-0.5" transform="matrix(4.37114e-08 1 1 -4.37114e-08 201.34 53.3175)" stroke="#00220E"/>
<line y1="-0.5" x2="149.12" y2="-0.5" transform="matrix(-4.37114e-08 1 1 4.37114e-08 236.29 26.5225)" stroke="#00220E"/>
<line y1="-0.5" x2="132.677" y2="-0.5" transform="matrix(0.939537 -0.342448 -0.305725 -0.95212 167.555 80.1125)" stroke="#00220E"/>
<line y1="-0.5" x2="136.186" y2="-0.5" transform="matrix(0.913234 0.407435 0.365798 -0.930694 167.698 121.687)" stroke="#00220E"/>
<line y1="-0.5" x2="123.49" y2="-0.5" transform="matrix(1 8.74228e-08 8.74228e-08 -1 168.72 101.082)" stroke="#00220E"/>
</svg>
